# xmcd
#
# Track frame offsets:
#	150
#	17803
#	35818
#	49000
#	65206
#	80109
#	92798
#	103195
#	115382
#	127590
#	139781
#	152331
#	165614
#	176238
#	185451
#	203086
#
# Disc length: 2863 seconds
#
# Revision: 0
# Processed by: cddbd v1.5.2PL0 Copyright (c) Steve Scherf et al.
# Submitted via: audiograbber 1.83.01
#
DISCID=e00b2d10
DTITLE=Various Artist - Country Collection
DYEAR=1979
DGENRE=Country
TTITLE0=Willie Nelson - All Of Me
TTITLE1=Johnny Duncan - Slow Dancing
TTITLE2=Lynn Anderson - Isn't It Always Love 
TTITLE3=Johnny Rodriguez - Down On The Rio Grande
TTITLE4=Janie Fricke - Please Help Me I'm Falling (In Love With You)
TTITLE5=Moe Bandy - Two Lonely People 
TTITLE6=Tom T. Hall - Your Man Loves You Honey
TTITLE7=Marty Robbins - Touch Me With Magic
TTITLE8=Moe Bandy - It's A Cheating Situation
TTITLE9=Janie Fricke - I'll Love Away Your Troubles For A While
TTITLE10=Willie Nelson - Whiskey Rain
TTITLE11=Johnny Duncan - She Can Put Her Shoes Under My Bed Anytime 
TTITLE12=Tammy Wynette - They Call It Making Love 
TTITLE13=Johnny Rodriguez - Just Get Up And Close The Door 
TTITLE14=Jerry Lee Lewis - Middle Age Crazy
TTITLE15=Mickey Gilley - Just Long Enough To Say Goodbye 
EXTD=
EXTT0=
EXTT1=
EXTT2=
EXTT3=
EXTT4=
EXTT5=
EXTT6=
EXTT7=
EXTT8=
EXTT9=
EXTT10=
EXTT11=
EXTT12=
EXTT13=
EXTT14=
EXTT15=
PLAYORDER=
